<svg width="36" height="31" viewBox="0 0 36 31" fill="none" xmlns="http://www.w3.org/2000/svg">
<path fill-rule="evenodd" clip-rule="evenodd" d="M9.64286 2.57461C5.74236 2.57461 2.57143 5.79067 2.57143 9.6548C2.57143 10.6855 3.09657 11.8178 3.74678 12.789C4.05879 13.2551 4.37262 13.6443 4.608 13.9162C4.72512 14.0514 4.82129 14.1559 4.88604 14.2244C4.91837 14.2586 4.94275 14.2838 4.95784 14.2991L4.97331 14.3148L4.97378 14.3153L4.97512 14.3166L4.97742 14.3189L18 27.3588L31.0227 14.3188L31.0247 14.3168L31.0256 14.3158L31.0264 14.3151L31.0269 14.3146L31.0424 14.2989C31.0574 14.2836 31.0818 14.2585 31.1141 14.2243C31.1789 14.1558 31.275 14.0514 31.3921 13.9162C31.6275 13.6445 31.9413 13.2554 32.2533 12.7895C32.9034 11.8185 33.4286 10.6862 33.4286 9.6548C33.4286 5.79067 30.2576 2.57461 26.3571 2.57461C24.4235 2.57461 22.593 3.46002 21.1784 4.43836C20.4834 4.91907 19.9192 5.40115 19.5305 5.76171C19.3367 5.94141 19.1883 6.08932 19.0907 6.18962C19.0419 6.23972 19.006 6.2778 18.9836 6.30186C18.9766 6.3094 18.9709 6.31556 18.9666 6.32027C18.964 6.32307 18.9619 6.32536 18.9603 6.32713L18.9579 6.32977L18.9574 6.3303L18.9565 6.33132L18 7.40087L17.0436 6.33137L17.043 6.33073L17.0421 6.32977L17.0397 6.32713C17.0354 6.32239 17.0276 6.31388 17.0164 6.30186C16.994 6.2778 16.9581 6.23972 16.9093 6.18962C16.8117 6.08932 16.6633 5.94141 16.4695 5.76171C16.0808 5.40115 15.5166 4.91907 14.8216 4.43836C13.407 3.46002 11.5765 2.57461 9.64286 2.57461ZM18 3.67518C17.5605 3.28147 16.9789 2.80123 16.2831 2.32C14.673 1.20647 12.3249 0 9.64286 0C4.31193 0 0 4.37906 0 9.6548C0 11.4562 0.867934 13.1129 1.61079 14.2225C1.99532 14.7969 2.37803 15.2712 2.66504 15.6027C2.80913 15.7691 2.93063 15.9013 3.01824 15.994C3.06209 16.0404 3.09757 16.077 3.12329 16.1032C3.13615 16.1163 3.14659 16.1269 3.15442 16.1347L3.16268 16.1429L3.16419 16.1444L3.16757 16.1478L3.16944 16.1497L18 31L32.8303 16.1499L32.8309 16.1493L32.8322 16.148L32.8356 16.1447L32.8373 16.1429L32.8454 16.1349C32.8491 16.1312 32.8534 16.1269 32.8583 16.1219C32.8637 16.1165 32.8698 16.1103 32.8765 16.1034C32.9022 16.0772 32.9377 16.0406 32.9816 15.9942C33.0692 15.9015 33.1907 15.7694 33.3348 15.603C33.6219 15.2716 34.0046 14.7974 34.3892 14.2231C35.1321 13.1134 36 11.4568 36 9.6548C36 4.37906 31.6881 0 26.3571 0C23.6751 0 21.327 1.20647 19.7169 2.32C19.0211 2.80123 18.4395 3.28147 18 3.67518Z" fill="#666666"/>
</svg>
