<svg width="23" height="20" viewBox="0 0 23 20" fill="none" xmlns="http://www.w3.org/2000/svg">
<path fill-rule="evenodd" clip-rule="evenodd" d="M6.16071 1.66104C3.66873 1.66104 1.64286 3.73592 1.64286 6.22891C1.64286 6.89389 1.97836 7.62437 2.39378 8.251C2.59311 8.55168 2.79362 8.80279 2.944 8.97818C3.01882 9.06545 3.08027 9.13284 3.12164 9.17704C3.14229 9.19911 3.15787 9.21532 3.16751 9.22525L3.17739 9.23535L3.17769 9.23566L3.17855 9.23652L3.18002 9.23798L11.5 17.6508L19.82 9.23791L19.8214 9.23661L19.8219 9.23603L19.8224 9.23552L19.8227 9.23522L19.8326 9.22513C19.8423 9.21521 19.8578 9.19901 19.8785 9.17695C19.9198 9.13277 19.9813 9.06542 20.0561 8.9782C20.2065 8.80288 20.4069 8.55187 20.6063 8.25126C21.0216 7.62483 21.3571 6.89433 21.3571 6.22891C21.3571 3.73592 19.3313 1.66104 16.8393 1.66104C15.6039 1.66104 14.4344 2.23227 13.5307 2.86346C13.0866 3.1736 12.7262 3.48461 12.4778 3.71723C12.354 3.83317 12.2592 3.9286 12.1968 3.9933C12.1657 4.02562 12.1427 4.05019 12.1284 4.06571C12.1239 4.07058 12.1203 4.07455 12.1175 4.07759C12.1159 4.0794 12.1145 4.08088 12.1135 4.08202L12.112 4.08372L12.1117 4.08406L12.1111 4.08472L11.5 4.77475L10.889 4.08476L10.8886 4.08434L10.888 4.08372L10.8865 4.08202C10.8837 4.07896 10.8787 4.07347 10.8716 4.06571C10.8573 4.05019 10.8343 4.02562 10.8032 3.9933C10.7408 3.9286 10.646 3.83317 10.5222 3.71723C10.2738 3.48461 9.91341 3.1736 9.46935 2.86346C8.56559 2.23227 7.39612 1.66104 6.16071 1.66104ZM11.5 2.37108C11.2192 2.11708 10.8476 1.80724 10.4031 1.49677C9.37441 0.778366 7.87423 0 6.16071 0C2.75484 0 0 2.8252 0 6.22891C0 7.39107 0.554514 8.45991 1.02911 9.17582C1.27479 9.5464 1.51929 9.85237 1.70267 10.0662C1.79472 10.1736 1.87234 10.2589 1.92832 10.3187C1.95633 10.3486 1.979 10.3723 1.99544 10.3892C2.00365 10.3976 2.01032 10.4044 2.01532 10.4095L2.0206 10.4148L2.02157 10.4158L2.02373 10.4179L2.02492 10.4191L11.5 20L20.9749 10.4193L20.9753 10.4189L20.9761 10.4181L20.9783 10.4159L20.9794 10.4148L20.9845 10.4096C20.9869 10.4072 20.9897 10.4044 20.9928 10.4012C20.9962 10.3977 21.0001 10.3938 21.0044 10.3893C21.0209 10.3724 21.0435 10.3488 21.0716 10.3188C21.1276 10.259 21.2052 10.1738 21.2972 10.0664C21.4806 9.85264 21.7252 9.54673 21.9709 9.17618C22.4455 8.46028 23 7.39145 23 6.22891C23 2.8252 20.2452 0 16.8393 0C15.1258 0 13.6256 0.778366 12.5969 1.49677C12.1524 1.80724 11.7808 2.11708 11.5 2.37108Z" fill="black"/>
</svg>
