<svg width="187" height="23" viewBox="0 0 187 23" fill="none" xmlns="http://www.w3.org/2000/svg">
<path d="M59.8526 12.7848C59.8526 16.0223 59.8526 19.1771 59.8526 22.3705C58.3021 22.3705 56.8439 22.3705 55.3223 22.3705C55.3223 15.0737 55.3223 7.80448 55.3223 0.491133C55.3857 0.469072 55.4836 0.419434 55.5816 0.419434C59.305 0.463556 63.0399 0.424949 66.7575 0.60144C68.1927 0.667624 69.6625 1.07024 71.0054 1.58869C75.2706 3.23226 75.0343 8.3505 72.3887 10.4353C71.3743 11.235 70.1581 11.8086 68.965 12.5311C71.0112 15.7135 73.1207 18.9951 75.3167 22.4091C73.7489 22.4091 72.3368 22.4367 70.9362 22.3815C70.7115 22.3705 70.4406 22.0506 70.2907 21.819C68.4924 19.0448 66.6941 16.2705 64.9362 13.4743C64.6134 12.9668 64.2734 12.7407 63.6278 12.7683C62.4001 12.8234 61.1667 12.7848 59.8526 12.7848ZM59.8929 11.6597C61.184 11.9189 64.2906 11.8417 65.3915 11.406C66.2273 11.0751 67.0803 10.6725 67.7604 10.1099C70.7057 7.66108 69.9967 3.49148 66.4348 2.04646C64.3195 1.19158 62.112 1.58869 59.8929 1.49493C59.8929 4.94202 59.8929 8.2788 59.8929 11.6597Z" fill="black"/>
<path d="M101.253 2.47678C100.395 3.12759 99.6396 3.70119 98.8385 4.30788C98.435 3.93835 98.0604 3.56882 97.6511 3.22687C95.3341 1.29098 91.847 1.04279 89.4666 2.63673C87.6049 3.88319 87.409 6.03418 89.0459 7.55642C90.4292 8.84701 92.239 9.21653 94.0315 9.6357C95.7088 10.0328 97.4206 10.3803 99.0344 10.9539C101.138 11.704 102.735 13.0166 102.885 15.3661C103.075 18.3444 101.519 20.7436 98.6655 21.9956C96.6828 22.867 94.5791 23.0656 92.4349 22.9828C89.5646 22.8725 86.7865 22.4478 84.3888 20.7712C84.1582 20.6112 83.9277 20.4403 83.5991 20.1976C84.504 19.5357 85.3628 18.9125 86.2735 18.2452C87.2822 19.5137 88.481 20.4623 90.0315 20.9477C92.0834 21.5875 94.141 21.786 96.1756 20.8925C99.069 19.613 99.4264 16.4968 96.9076 14.6271C95.6972 13.7281 94.2563 13.342 92.8038 12.9615C90.9364 12.4706 89.017 12.079 87.2533 11.3399C85.0401 10.4134 84.0833 8.5933 84.2447 6.25479C84.4118 3.9218 85.6625 2.23411 87.8124 1.2965C92.4292 -0.722119 96.9134 -0.424291 101.253 2.47678Z" fill="black"/>
<path d="M109.265 22.4151C109.818 21.2679 110.297 20.2696 110.781 19.2769C113.715 13.2155 116.66 7.15413 119.576 1.08173C119.819 0.579835 120.089 0.364737 120.683 0.397829C121.628 0.447467 122.574 0.425406 123.519 0.403344C123.963 0.392314 124.222 0.502621 124.412 0.932818C127.513 7.93179 130.626 14.9252 133.738 21.9242C133.796 22.0566 133.824 22.2 133.888 22.4206C132.568 22.4206 131.311 22.4482 130.061 22.393C129.824 22.382 129.502 22.0676 129.392 21.8249C128.453 19.7015 127.536 17.5616 126.649 15.4161C126.435 14.8977 126.159 14.7102 125.553 14.7157C122.297 14.7488 119.04 14.7432 115.784 14.7212C115.271 14.7157 114.994 14.848 114.77 15.3168C113.767 17.4182 112.683 19.4864 111.709 21.5988C111.398 22.2662 111.006 22.5144 110.285 22.4206C110.009 22.3875 109.72 22.4151 109.265 22.4151ZM121.052 2.44954C119.208 6.22755 117.473 9.78495 115.692 13.4251C119.115 13.4251 122.401 13.4251 125.796 13.4251C124.228 9.78495 122.689 6.22203 121.052 2.44954Z" fill="black"/>
<path d="M158.591 17.6005C159.634 17.6005 160.603 17.6005 161.605 17.6005C161.536 19.5088 160.51 20.849 158.85 21.6267C157.669 22.1782 156.343 22.5312 155.04 22.7408C152.62 23.1269 150.176 23.0938 147.772 22.5422C144.118 21.7094 141.778 19.5364 140.816 16.0727C139.986 13.0779 139.98 10.05 140.781 7.04964C141.709 3.56946 144.038 1.37987 147.703 0.569113C150.983 -0.158912 154.274 -0.175458 157.496 0.855911C160.182 1.72182 161.628 3.59704 161.634 6.08446C160.36 6.08446 159.092 6.08446 157.801 6.08446C157.703 5.59359 157.646 5.11927 157.519 4.66701C156.7 1.77146 153.836 0.232677 150.533 0.900034C148.418 1.33023 147.075 2.61531 146.245 4.4464C145.161 6.85661 144.925 9.41572 145.046 11.9859C145.133 13.7784 145.317 15.615 145.83 17.3302C147.104 21.6046 151.017 22.6305 154.591 21.8804C156.885 21.4006 158.222 19.8728 158.591 17.6005Z" fill="black"/>
<path d="M186.943 0.474898C186.943 0.899579 186.943 1.27462 186.943 1.77652C186.66 1.77652 186.384 1.77652 186.113 1.77652C183.064 1.77652 180.015 1.77652 176.971 1.77652C176.614 1.77652 176.222 1.68827 176.228 2.26187C176.245 4.99748 176.234 7.7386 176.234 10.568C179.121 10.568 181.963 10.568 184.845 10.568C184.845 11.0257 184.845 11.3898 184.845 11.842C181.997 11.842 179.173 11.842 176.291 11.842C176.291 14.9306 176.291 17.931 176.291 21.0196C179.836 21.0196 183.363 21.0196 186.931 21.0196C186.954 21.3008 186.954 21.4994 186.983 21.6924C187.069 22.2605 186.822 22.4204 186.234 22.4149C183.634 22.3874 181.029 22.4039 178.43 22.4039C176.487 22.4039 174.539 22.4039 172.597 22.4039C172.314 22.4039 172.038 22.3818 171.715 22.3653C171.715 15.0464 171.715 7.78824 171.715 0.463867C176.758 0.474898 181.807 0.474898 186.943 0.474898Z" fill="black"/>
<path d="M45.5988 21.0137C45.5988 21.3667 45.5815 21.5873 45.6046 21.8079C45.6507 22.2547 45.4836 22.4256 44.9879 22.4256C40.3135 22.4036 35.6391 22.3981 30.9589 22.4146C30.4805 22.4146 30.3076 22.3098 30.3076 21.841C30.3191 14.82 30.3191 7.80996 30.3191 0.794444C30.3191 0.700683 30.3537 0.601407 30.3825 0.458008C35.4258 0.458008 40.4518 0.458008 45.5412 0.458008C45.5412 0.866143 45.5412 1.25222 45.5412 1.75411C42.0253 1.75411 38.4979 1.75411 34.9186 1.75411C34.9186 4.74343 34.9186 7.62244 34.9186 10.5732C37.7544 10.5732 40.5786 10.5732 43.4432 10.5732C43.4432 11.0144 43.4432 11.3839 43.4432 11.8472C40.6305 11.8472 37.812 11.8472 34.9301 11.8472C34.9301 14.9413 34.9301 17.9417 34.9301 21.0137C38.4576 21.0137 41.9677 21.0137 45.5988 21.0137Z" fill="black"/>
<path d="M20.9757 0.414077C20.0708 2.73604 19.2178 4.92011 18.3647 7.09867C16.4742 11.9467 14.5664 16.7891 12.7105 21.6482C12.4742 22.2604 12.1514 22.4479 11.5174 22.4258C10.5721 22.3872 9.62689 22.4424 8.68164 22.3927C8.43956 22.3817 8.08221 22.1611 8.00152 21.9625C5.32138 14.8477 2.66429 7.72742 0.00144094 0.601598C-0.00432281 0.579537 0.00720468 0.55196 0.0360234 0.414077C1.43661 0.414077 2.86602 0.392015 4.28967 0.441653C4.45681 0.447169 4.6816 0.800151 4.75653 1.02628C6.53176 6.18313 8.2897 11.3455 10.0476 16.5079C10.4453 17.6661 10.8488 18.8243 11.4367 19.9825C11.8114 18.9732 12.186 17.9584 12.5664 16.9491C14.5145 11.7205 16.4685 6.49199 18.3878 1.25241C18.6241 0.607114 18.918 0.292739 19.6558 0.403046C20.042 0.458199 20.4397 0.414077 20.9757 0.414077Z" fill="black"/>
</svg>
