<svg width="20" height="20" viewBox="0 0 20 20" fill="none" xmlns="http://www.w3.org/2000/svg">
<path fill-rule="evenodd" clip-rule="evenodd" d="M9.24279 0.592214C10.1867 0.201234 11.1984 0 12.22 0C13.2417 0 14.2534 0.201234 15.1973 0.592214C16.1412 0.983193 16.9989 1.55626 17.7213 2.27869C18.4437 3.00113 19.0168 3.85878 19.4078 4.80269C19.7988 5.7466 20 6.75827 20 7.77995C20 8.80163 19.7988 9.8133 19.4078 10.7572C19.0168 11.7011 18.4437 12.5588 17.7213 13.2812C16.9989 14.0036 16.1412 14.5767 15.1973 14.9677C14.2534 15.3587 13.2417 15.5599 12.22 15.5599C11.1984 15.5599 10.1867 15.3587 9.24279 14.9677C8.53937 14.6763 7.88385 14.2838 7.29649 13.8038L1.10025 20L0 18.8997L6.19624 12.7035C5.71617 12.1161 5.32368 11.4606 5.03231 10.7572C4.64133 9.8133 4.4401 8.80163 4.4401 7.77995C4.4401 6.75827 4.64133 5.7466 5.03231 4.80269C5.42329 3.85878 5.99636 3.00113 6.71879 2.27869C7.44123 1.55626 8.29889 0.983192 9.24279 0.592214ZM12.22 1.55599C11.4027 1.55599 10.5934 1.71698 9.83824 2.02976C9.08312 2.34254 8.39699 2.801 7.81905 3.37895C7.2411 3.95689 6.78264 4.64302 6.46986 5.39814C6.15708 6.15327 5.99609 6.96261 5.99609 7.77995C5.99609 8.59729 6.15708 9.40663 6.46986 10.1618C6.78264 10.9169 7.2411 11.603 7.81905 12.181C8.39699 12.7589 9.08312 13.2174 9.83824 13.5301C10.5934 13.8429 11.4027 14.0039 12.22 14.0039C13.0374 14.0039 13.8467 13.8429 14.6019 13.5301C15.357 13.2174 16.0431 12.7589 16.6211 12.181C17.199 11.603 17.6575 10.9169 17.9702 10.1618C18.283 9.40663 18.444 8.59729 18.444 7.77995C18.444 6.96261 18.283 6.15327 17.9702 5.39814C17.6575 4.64302 17.199 3.95689 16.6211 3.37895C16.0431 2.801 15.357 2.34254 14.6019 2.02976C13.8467 1.71698 13.0374 1.55599 12.22 1.55599Z" fill="black"/>
</svg>
